HIERARCHY
ROOT Hips
{
    OFFSET 0.000000 0.000000 0.000000
    CHANNELS 6 Xposition Yposition Zposition Zrotation Xrotation Yrotation
    JOINT Spine
    {
        OFFSET -0.000000 7.236184 0.000000
        CHANNELS 3 Zrotation Xrotation Yrotation
        JOINT Spine1
        {
            OFFSET -0.000000 20.420147 0.000000
            CHANNELS 3 Zrotation Xrotation Yrotation
            JOINT Neck
            {
                OFFSET -0.000000 20.336288 1.848754
                CHANNELS 3 Zrotation Xrotation Yrotation
                JOINT Head
                {
                    OFFSET -0.000000 12.354461 -1.764923
                    CHANNELS 3 Zrotation Xrotation Yrotation
                    End Site
                    {
                        OFFSET -0.000000 22.061537 0.000000
                    }
                }
            }
            JOINT LeftShoulder
            {
                OFFSET 3.573296 18.396038 -0.314103
                CHANNELS 3 Zrotation Xrotation Yrotation
                JOINT LeftArm
                {
                    OFFSET 10.880760 0.000000 0.000000
                    CHANNELS 3 Zrotation Xrotation Yrotation
                    JOINT LeftForeArm
                    {
                        OFFSET 27.185530 0.000000 0.000000
                        CHANNELS 3 Zrotation Xrotation Yrotation
                        JOINT LeftHand
                        {
                            OFFSET 27.825975 0.000000 0.000000
                            CHANNELS 3 Zrotation Xrotation Yrotation
                            End Site
                            {
                                OFFSET 13.236923 0.000000 0.000000
                            }
                        }
                    }
                }
            }
            JOINT RightShoulder
            {
                OFFSET -3.474926 18.396038 -0.314103
                CHANNELS 3 Zrotation Xrotation Yrotation
                JOINT RightArm
                {
                    OFFSET -10.880760 0.000000 0.000000
                    CHANNELS 3 Zrotation Xrotation Yrotation
                    JOINT RightForeArm
                    {
                        OFFSET -27.185530 0.000000 0.000000
                        CHANNELS 3 Zrotation Xrotation Yrotation
                        JOINT RightHand
                        {
                            OFFSET -27.825975 0.000000 0.000000
                            CHANNELS 3 Zrotation Xrotation Yrotation
                            End Site
                            {
                                OFFSET -13.236923 0.000000 0.000000
                            }
                        }
                    }
                }
            }
        }
    }
    JOINT LeftUpLeg
    {
        OFFSET 8.824615 0.000000 0.000000
        CHANNELS 3 Zrotation Xrotation Yrotation
        JOINT LeftLeg
        {
            OFFSET -0.000000 -35.111282 0.000000
            CHANNELS 3 Zrotation Xrotation Yrotation
            JOINT LeftFoot
            {
                OFFSET -0.000000 -42.324711 0.000000
                CHANNELS 3 Zrotation Xrotation Yrotation
                JOINT LeftToeBase
                {
                    OFFSET -0.000000 -5.735999 13.236923
                    CHANNELS 3 Zrotation Xrotation Yrotation
                    End Site
                    {
                        OFFSET -0.000000 0.000000 3.529846
                    }
                }
            }
        }
    }
    JOINT RightUpLeg
    {
        OFFSET -8.824615 0.000000 0.000000
        CHANNELS 3 Zrotation Xrotation Yrotation
        JOINT RightLeg
        {
            OFFSET -0.000000 -35.111282 0.000000
            CHANNELS 3 Zrotation Xrotation Yrotation
            JOINT RightFoot
            {
                OFFSET -0.000000 -42.324711 0.000000
                CHANNELS 3 Zrotation Xrotation Yrotation
                JOINT RightToeBase
                {
                    OFFSET -0.000000 -5.735999 13.236923
                    CHANNELS 3 Zrotation Xrotation Yrotation
                    End Site
                    {
                        OFFSET -0.000000 0.000000 3.529846
                    }
                }
            }
        }
    }
}
MOTION
Frames:    11
Frame Time:    0.008333
-6.315240    82.658424    101.966766    0.459286    -6.268943    -176.457596    -2.109371    -8.257851    1.037819    -1.065918    4.505008    1.232080    0.661456    7.976012    -4.456072    8.987468    -0.959663    -3.332214    -5.476653    18.683649    0.244868    -46.808811    38.518257    -37.238411    23.590147    -13.455940    -53.075321    18.866648    -2.304364    -4.313818    9.556525    17.156130    -7.669975    43.342278    42.871487    34.687519    -29.541708    -13.729088    56.836632    -29.626167    0.390664    8.334626    3.349697    -16.178427    -1.660317    1.226877    24.439257    3.650024    -7.116704    -11.576375    -12.510430    -0.345841    -1.277451    0.384245    -3.905015    -12.548371    1.299321    1.147082    19.985416    5.317661    -0.483817    -9.570583    -13.869764    -1.755370    -1.509553    1.902530    
-6.167851    82.637840    101.958252    0.430971    -6.282701    -176.381317    -2.097402    -8.276982    0.972533    -0.977044    4.529078    1.162974    0.611905    8.001548    -4.357422    8.777468    -0.983844    -3.255403    -5.478342    18.649258    0.306711    -46.917374    37.915722    -36.767242    23.208389    -13.109361    -52.404888    18.895033    -2.343833    -4.435008    9.622079    17.223200    -7.762902    43.461006    42.249771    34.227394    -29.241533    -13.476544    56.497154    -29.576740    0.340166    8.411550    3.404233    -16.250406    -1.660231    1.256188    24.516474    3.623475    -7.218627    -11.592164    -12.573028    -0.339376    -1.267561    0.377054    -3.845891    -12.643142    1.237126    1.160469    20.165028    5.319798    -0.582028    -9.640486    -13.903595    -1.763349    -1.485064    1.911112    
-6.013872    82.618462    101.945389    0.405347    -6.294392    -176.298645    -2.086206    -8.301779    0.899562    -0.863058    4.559609    1.085329    0.557463    8.055778    -4.240044    8.531172    -1.008952    -3.164140    -5.464664    18.601961    0.388971    -47.093597    37.151154    -36.143749    22.744795    -12.725538    -51.651005    18.913069    -2.400752    -4.558049    9.673083    17.275274    -7.888803    43.654755    41.429756    33.601128    -28.883343    -13.202971    56.137962    -29.495750    0.278664    8.480753    3.466046    -16.312872    -1.658124    1.286597    24.583010    3.584616    -7.321175    -11.605052    -12.630938    -0.332489    -1.256470    0.369395    -3.783210    -12.720332    1.158649    1.173914    20.323078    5.329647    -0.681260    -9.708271    -13.934344    -1.771158    -1.459049    1.919504    
-5.869639    82.602730    101.929405    0.380999    -6.305267    -176.220825    -2.080422    -8.333659    0.826678    -0.735734    4.594347    1.007845    0.504345    8.138962    -4.113685    8.272140    -1.030121    -3.065839    -5.432494    18.544601    0.482833    -47.311775    36.294796    -35.429661    22.240971    -12.349657    -50.905430    18.915501    -2.471439    -4.665608    9.698731    17.300077    -8.033431    43.897614    40.478180    32.871059    -28.502621    -12.944345    55.805798    -29.383873    0.210002    8.528112    3.524702    -16.359354    -1.653368    1.314598    24.628635    3.541475    -7.413812    -11.611990    -12.680065    -0.325945    -1.245711    0.362118    -3.728212    -12.773713    1.073618    1.187127    20.442211    5.346753    -0.770783    -9.767211    -13.958644    -1.777824    -1.435399    1.926664    
-5.723757    82.589317    101.909042    0.355393    -6.315216    -176.143784    -2.078392    -8.374416    0.749028    -0.588558    4.635820    0.925055    0.449799    8.260056    -3.967859    7.981181    -1.047300    -2.952311    -5.376145    18.471525    0.593139    -47.568901    35.290340    -34.583740    21.661777    -11.958601    -50.131447    18.902544    -2.558161    -4.763728    9.697794    17.294859    -8.203228    44.187870    39.324867    32.001534    -28.073027    -12.689294    55.484856    -29.229448    0.126946    8.551803    3.585052    -16.392069    -1.642518    1.342570    24.656590    3.491800    -7.504593    -11.613180    -12.726470    -0.319424    -1.234597    0.354867    -3.676584    -12.807972    0.980947    1.202617    20.533991    5.370399    -0.856310    -9.822577    -13.979645    -1.783457    -1.412674    1.932708    
-5.583455    82.578995    101.885078    0.328904    -6.323668    -176.072617    -2.079497    -8.423222    0.670274    -0.430436    4.682725    0.841043    0.396935    8.419957    -3.807695    7.672171    -1.058456    -2.827176    -5.292968    18.384642    0.713087    -47.835850    34.184280    -33.648163    21.036945    -11.576626    -49.389103    18.873348    -2.653380    -4.841896    9.663738    17.251707    -8.386910    44.496292    38.014568    31.041580    -27.616188    -12.459783    55.203617    -29.035358    0.031217    8.541615    3.643721    -16.408039    -1.623491    1.369453    24.663799    3.438607    -7.589218    -11.607847    -12.769701    -0.313214    -1.224207    0.347960    -3.631688    -12.821191    0.889305    1.221140    20.593870    5.397614    -0.932710    -9.871741    -13.997204    -1.787410    -1.393182    1.936939    
-5.442520    82.571243    101.856323    0.300752    -6.329301    -176.004974    -2.082132    -8.480464    0.587061    -0.255934    4.736540    0.752083    0.343231    8.629941    -3.625450    7.332612    -1.061491    -2.684208    -5.175924    18.279480    0.846370    -48.100559    32.936081    -32.590797    20.347652    -11.191814    -48.668480    18.825573    -2.755280    -4.899297    9.588622    17.162563    -8.588628    44.813232    36.488945    29.967072    -27.116623    -12.252398    54.961693    -28.791708    -0.080300    8.489614    3.704311    -16.405806    -1.594402    1.396140    24.650160    3.381047    -7.671454    -11.595654    -12.813281    -0.307106    -1.214022    0.341169    -3.590760    -12.812978    0.800775    1.245676    20.625708    5.426046    -1.005005    -9.916659    -14.014269    -1.789908    -1.375998    1.939597    
-5.305930    82.566383    101.823761    0.271540    -6.331713    -175.944183    -2.085975    -8.543809    0.502356    -0.071270    4.794574    0.661225    0.289806    8.890086    -3.426472    6.974978    -1.054691    -2.527267    -5.024681    18.158472    0.987227    -48.329071    31.594568    -31.451527    19.627968    -10.821865    -48.020153    18.758633    -2.853098    -4.926169    9.466172    17.022211    -8.797925    45.105003    34.794968    28.826767    -26.597506    -12.079645    54.783012    -28.505936    -0.199467    8.388546    3.764691    -16.384380    -1.556055    1.421078    24.614794    3.324132    -7.748524    -11.576144    -12.857651    -0.301247    -1.203957    0.334654    -3.555275    -12.783877    0.722908    1.276651    20.628937    5.451464    -1.076413    -9.954585    -14.031765    -1.791575    -1.359489    1.941360    
-5.170472    82.564240    101.787010    0.241140    -6.330462    -175.889679    -2.090485    -8.612995    0.414875    0.127354    4.856520    0.566907    0.235131    9.211014    -3.207120    6.592608    -1.036337    -2.353526    -4.833705    18.018919    1.137322    -48.497402    30.146685    -30.215992    18.879219    -10.460776    -47.449894    18.670994    -2.939433    -4.917943    9.286036    16.822783    -9.015106    45.351128    32.900787    27.614708    -26.057730    -11.935814    54.676239    -28.175249    -0.318202    8.231525    3.827301    -16.343271    -1.508012    1.443777    24.557400    3.269110    -7.821591    -11.548855    -12.904676    -0.295475    -1.193793    0.328236    -3.523046    -12.734533    0.658069    1.315310    20.605844    5.470413    -1.152156    -9.985770    -14.050335    -1.793592    -1.342001    1.943497    
-5.041935    82.564796    101.748337    0.210505    -6.326481    -175.844528    -2.095787    -8.684510    0.329124    0.330797    4.918259    0.474268    0.179787    9.582992    -2.978960    6.206222    -1.005672    -2.171969    -4.609866    17.866629    1.288176    -48.572063    28.676580    -28.947830    18.155582    -10.125071    -46.999119    18.568375    -3.000200    -4.870366    9.049000    16.569527    -9.225230    45.517982    30.900665    26.398188    -25.534729    -11.821891    54.657867    -27.819504    -0.416721    8.023494    3.889146    -16.286213    -1.453366    1.462583    24.481836    3.221195    -7.887397    -11.515002    -12.953217    -0.290182    -1.183964    0.322349    -3.495184    -12.670263    0.611080    1.359691    20.560278    5.478114    -1.231806    -10.008508    -14.067509    -1.797120    -1.321908    1.947264    
-4.910848    82.567787    101.705482    0.177624    -6.319053    -175.805984    -2.101528    -8.761550    0.240637    0.552222    4.982909    0.377671    0.119431    10.035305    -2.728963    5.790509    -0.959205    -1.972729    -4.336494    17.689842    1.449024    -48.528793    27.108097    -27.569378    17.428448    -9.788826    -46.638653    18.446507    -3.030610    -4.783305    8.732532    16.243763    -9.437799    45.589409    28.667198    25.108524    -25.004309    -11.715738    54.730530    -27.420847    -0.483841    7.754705    3.954905    -16.210094    -1.389690    1.478250    24.384750    3.179157    -7.950346    -11.472744    -13.006954    -0.285492    -1.173801    0.317134    -3.468456    -12.588279    0.579101    1.411809    20.491871    5.472978    -1.319474    -10.024857    -14.082383    -1.802980    -1.297662    1.953548    
